<?xml version="1.0" encoding="UTF-8"?><svg id="Capa_1" xmlns="http://www.w3.org/2000/svg" viewBox="0 0 399.5 73.6"><defs><style>.cls-1{fill:#e8dcca;}</style></defs><path class="cls-1" d="M13.25,70.1c-4.5-2.33-7.85-5.65-10.05-9.95C1,55.85-.06,50.8,0,45l15-2.2c.07,2.53.67,4.75,1.8,6.65,1.13,1.9,2.82,3.38,5.05,4.45,2.23,1.07,4.98,1.6,8.25,1.6,2.47,0,4.47-.32,6-.95,1.53-.63,2.65-1.52,3.35-2.65.7-1.13,1.05-2.43,1.05-3.9s-.4-2.55-1.2-3.45c-.8-.9-2.05-1.63-3.75-2.2-1.7-.57-4.05-1.12-7.05-1.65-6.4-.93-11.53-2.28-15.4-4.05-3.87-1.77-6.68-3.97-8.45-6.6-1.77-2.63-2.65-5.82-2.65-9.55,0-6.47,2.37-11.5,7.1-15.1C13.84,1.8,20.17,0,28.1,0c5.53,0,10.4.9,14.6,2.7,4.2,1.8,7.57,4.75,10.1,8.85,2.53,4.1,3.9,9.48,4.1,16.15l-15.4,2.6c.13-3.07-.47-5.52-1.8-7.35-1.33-1.83-3.08-3.12-5.25-3.85-2.17-.73-4.58-1.1-7.25-1.1-3.07,0-5.37.62-6.9,1.85-1.53,1.23-2.3,2.85-2.3,4.85,0,1.2.28,2.22.85,3.05.57.83,1.65,1.57,3.25,2.2,1.6.63,3.87,1.18,6.8,1.65,6.73,1,12.13,2.4,16.2,4.2,4.07,1.8,7.03,4.02,8.9,6.65,1.87,2.63,2.8,5.82,2.8,9.55,0,4.53-1.18,8.43-3.55,11.7-2.37,3.27-5.6,5.73-9.7,7.4-4.1,1.67-8.72,2.5-13.85,2.5-6.47,0-11.95-1.17-16.45-3.5Z"/><path class="cls-1" d="M79.3,71.8V19.9h-19.4V1.9h56v18h-19.4v51.9h-17.2Z"/><path class="cls-1" d="M121.4,71.8V1.9h17.1v69.9h-17.1Z"/><path class="cls-1" d="M147.9,1.9h16.8l27.9,48.2h.6c0-.67-.1-1.6-.3-2.8-.13-1.07-.27-2.28-.4-3.65-.13-1.37-.2-2.78-.2-4.25V2l16.6-.1v69.9h-16.1l-28.5-48.2h-.7c0,.4.1,1.2.3,2.4.4,3.07.6,5.63.6,7.7v38.1h-16.6V1.9Z"/><path class="cls-1" d="M229.1,68.9c-4.33-3.13-7.57-7.42-9.7-12.85-2.13-5.43-3.2-11.65-3.2-18.65s1.05-13.1,3.15-18.7,5.5-10.12,10.2-13.55c4.7-3.43,10.78-5.15,18.25-5.15,5.47,0,10.42,1.08,14.85,3.25,4.43,2.17,7.95,5.33,10.55,9.5,2.6,4.17,3.87,9.22,3.8,15.15l-16,2.8c-.33-2.8-1.04-5.15-2.1-7.05-1.07-1.9-2.55-3.33-4.45-4.3-1.9-.97-4.25-1.45-7.05-1.45-3.47,0-6.32.77-8.55,2.3-2.23,1.53-3.9,3.73-5,6.6-1.1,2.87-1.65,6.3-1.65,10.3s.57,7.22,1.7,10.05c1.13,2.83,2.85,5.02,5.15,6.55,2.3,1.54,5.12,2.3,8.45,2.3,2.73,0,5.1-.63,7.1-1.9,2-1.27,3.53-2.88,4.6-4.85,1.07-1.97,1.63-3.95,1.7-5.95l.5,1.2h-12.8v-8.8l29.3-.1v6c0,6.67.08,12.42.25,17.25.17,4.83.52,9.15,1.05,12.95h-10.2c-.13-1-.3-1.97-.5-2.9-.73-4.8-1.1-10.2-1.1-16.2h-1c-.27,3.93-1.18,7.47-2.75,10.6-1.57,3.13-3.88,5.63-6.95,7.5-3.07,1.87-6.87,2.8-11.4,2.8-6.47,0-11.87-1.57-16.2-4.7Z"/><path class="cls-1" d="M286.5,1.9h48.5v17.7h-31.4v12.3h26.2v9l-26.2-.1v13.5h31.7v17.5h-48.8V1.9Z"/><path class="cls-1" d="M382.8,71.2c-1.07-2.4-1.9-5.96-2.5-10.7l-.7-4.8c-.33-2.4-.95-4.42-1.85-6.05-.9-1.63-2.18-2.87-3.85-3.7-1.67-.83-3.73-1.25-6.2-1.25h-8.5v27.1h-17.1V1.9h30.7c5.2,0,9.65.77,13.35,2.3,3.7,1.53,6.53,3.82,8.5,6.85,1.97,3.03,2.95,6.82,2.95,11.35,0,5.07-1.47,9.02-4.4,11.85-2.93,2.83-7.67,4.58-14.2,5.25v.9c3.27.2,6.02.82,8.25,1.85,2.23,1.03,3.98,2.45,5.25,4.25,1.27,1.8,2.13,3.97,2.6,6.5l1,6.5c.4,2.4.87,4.58,1.4,6.55.53,1.97,1.2,3.88,2,5.75h-16.5c-.07-.2-.13-.4-.2-.6ZM379.2,33.85c1.73-1.43,2.6-3.35,2.6-5.75,0-2.93-.83-5.03-2.5-6.3-1.67-1.27-4.3-1.9-7.9-1.9h-12.2v16.1h12.4c3.33,0,5.87-.72,7.6-2.15Z"/></svg>